<?xml version="1.0" encoding="utf-8" ?>
<svg baseProfile="full" height="200mm" version="1.1" viewBox="0,0,200,200" width="200mm" xmlns="http://www.w3.org/2000/svg" xmlns:ev="http://www.w3.org/2001/xml-events" xmlns:xlink="http://www.w3.org/1999/xlink"><defs /><rect fill="#1a1a1a" height="200" width="200" x="0" y="0" /><text alignment-baseline="middle" fill="#e1ed5e" style="dominant-baseline: central; font-size:9.0px; font-family:Arial;" text-anchor="middle" x="100.0" y="100.0">2024</text><line stroke="#e1ed5e" stroke-width="0.3" x1="100.0" x2="100.0" y1="15.0" y2="10.0" /><path d="M 100.0 14.0 a86.0,86.0 0 0,1 42.35913384403234,11.155469271406648" fill="none" id="id1" stroke="none" /><text fill="#e1ed5e" style="font-size:6.75px; font-family:Arial;" text-anchor="middle"><textPath startOffset="22.145653131862478" xlink:href="#id1">January</textPath></text><line stroke="#e1ed5e" stroke-width="0.3" x1="143.13028292997686" x2="145.6673583964461" y1="26.7553504044142" y2="22.446841604673864" /><path d="M 143.63769802327073 25.89364864446614 a86.0,86.0 0 0,1 29.32050498858742,28.57503671076993" fill="none" id="id2" stroke="none" /><text fill="#e1ed5e" style="font-size:6.75px; font-family:Arial;" text-anchor="middle"><textPath startOffset="20.669276256404974" xlink:href="#id2">February</textPath></text><line stroke="#e1ed5e" stroke-width="0.3" x1="172.87174338648825" x2="177.1583165268699" y1="56.24261187166439" y2="53.66864786411523" /><path d="M 173.72905801456457 55.72781907015455 a86.0,86.0 0 0,1 12.242430191666344,42.057860355516425" fill="none" id="id3" stroke="none" /><text fill="#e1ed5e" style="font-size:6.75px; font-family:Arial;" text-anchor="middle"><textPath startOffset="22.145653131862474" xlink:href="#id3">March</textPath></text><line stroke="#e1ed5e" stroke-width="0.3" x1="184.99686870605535" x2="189.99668451229388" y1="99.2704041080226" y2="99.22748670261217" /><path d="M 185.99683186730306 99.26182062694052 a86.0,86.0 0 0,1 -10.086455211305974,41.156179273409016" fill="none" id="id4" stroke="none" /><text fill="#e1ed5e" style="font-size:6.75px; font-family:Arial;" text-anchor="middle"><textPath startOffset="21.40746469413373" xlink:href="#id4">April</textPath></text><path d="M 120.26092885502905 105.52220625578681 l 16.356973596419284 4.4581658899347945 a37.953637613684435,37.953637613684435 0 0,0 -0.17672209129147687,0.6271243576669157 l -16.278033013053225 -4.738298171504718" fill="#ffb711" stroke="none" /><path d="M 120.05942366710727 106.21446072829308 l 11.951560868810926 3.702624107930836 a33.51196357433649,33.51196357433649 0 0,0 -0.1749568405397459,0.548049811106359 l -11.886239312493926 -3.9072429527285784" fill="#ff790b" stroke="none" /><path d="M 119.94978838288452 106.5578916946017 l 17.4218836411828 5.726919195436113 a39.33901941429714,39.33901941429714 0 0,0 -0.21639191635233732,0.6397242503719508 l -17.3210063032581 -6.025145120282224" fill="#ffca12" stroke="none" /><path d="M 119.83427380445688 106.89939002012753 l 10.403619283122953 3.6189188352868116 a32.01507456736274,32.01507456736274 0 0,0 -0.1850163812155057,0.5175237468798973 l -10.339962731863505 -3.79697753854763" fill="#ff6309" stroke="none" /><path d="M 119.71291397450082 107.23885506374661 l 14.413653118592359 5.292893075045819 a36.35474237253674,36.35474237253674 0 0,0 -0.22015274893417514,0.5839813222679097 l -14.320669685843743 -5.539542677507887" fill="#ffa10e" stroke="none" /><path d="M 119.58574465831526 107.57618678355244 l 26.100434147308743 10.096208629364972 a48.98510481248309,48.98510481248309 0 0,0 -0.31010213050927504,0.7816599425880965 l -25.923273341833344 -10.542769589166632" fill="#baff1f" stroke="none" /><path d="M 119.4528033332814 107.91128576633889 l 12.694314780001305 5.162667308758984 a34.70396882201241,34.70396882201241 0 0,0 -0.2291687413154623,0.5499215532061525 l -12.603820194149357 -5.379821371406415" fill="#ff8a0c" stroke="none" /><path d="M 119.31412917781788 108.2440532568976 l 12.413200749138232 5.298457265264016 a34.49671079301305,34.49671079301305 0 0,0 -0.2371502962081303,0.542646287757391 l -12.320416570913135 -5.510765622797251" fill="#ff870c" stroke="none" /><path d="M 118.5362547648365 109.86951160357373 l 11.291294448343416 6.0119783090538395 a33.79207620004371,33.79207620004371 0 0,0 -0.27702205066620716,0.5096893715819876 l -11.18642704806187 -6.2049225141104305" fill="#ff7d0b" stroke="none" /><line stroke="#e1ed5e" stroke-width="0.3" x1="174.33088141563837" x2="178.70328620479359" y1="141.23008692659167" y2="143.65538615756765" /><path d="M 175.20536237346943 141.71514677278685 a86.0,86.0 0 0,1 -30.301960400862466,31.631185727798858" fill="none" id="id5" stroke="none" /><text fill="#e1ed5e" style="font-size:6.75px; font-family:Arial;" text-anchor="middle"><textPath startOffset="22.145653131862474" xlink:href="#id5">May</textPath></text><path d="M 118.18653347947321 110.5 l 14.956226073341199 8.634981149504437 a38.26996229900888,38.26996229900888 0 0,0 -0.3333610579443547,0.5661199560779532 l -14.80579130526708 -8.890452273875939" fill="#ffbb11" stroke="none" /><path d="M 117.81537515405839 111.11811171558189 l 26.74413579446211 16.69031872347557 a52.52484002312825,52.52484002312825 0 0,0 -0.48393463307884277,0.7608256226060001 l -26.453683469757376 -17.146958020760245" fill="#90ff24" stroke="none" /><path d="M 117.62189284568427 111.42229804090321 l 46.28061191056195 29.99853349393617 a76.15257972754183,76.15257972754183 0 0,0 -0.7204598335715937,1.0908680142111185 l -45.758827638069626 -30.78858138648635" fill="#43ffdd" stroke="none" /><path d="M 117.423217284605 111.72311816256416 l 8.672713274086739 5.835388541701383 a31.45311986763474,31.45311986763474 0 0,0 -0.30526041134294823,0.44538406296727934 l -8.571263125928471 -5.983407339738706" fill="#ff5b08" stroke="none" /><path d="M 116.35404254752997 113.17365903436017 l 20.226349917417462 16.29291574528529 a46.972376373077196,46.972376373077196 0 0,0 -0.5112231441898635,0.6236091121911213 l -19.943679953988973 -16.637727139174903" fill="#d2ff1c" stroke="none" /><path d="M 116.1254893667686 113.45245675266167 l 18.39583082574155 15.346456345228999 a44.95663403162728,44.95663403162728 0 0,0 -0.4994584345714149,0.5883607800547564 l -18.12967782766302 -15.659983907733311" fill="#ebff1a" stroke="none" /><path d="M 115.89218393027572 113.72728997021213 l 20.496956073150365 17.704782474031806 a48.08476565742151,48.08476565742151 0 0,0 -0.5449353437433566,0.6200363887786156 l -20.19000966544842 -18.054031140621717" fill="#c4ff1e" stroke="none" /><path d="M 115.41159269507618 114.26474011684316 l 19.92208138655216 18.439581111987085 a48.146039828268854,48.146039828268854 0 0,0 -0.5666196605837298,0.6017304439419779 l -19.60260589223217 -18.778853015873562" fill="#c4ff1e" stroke="none" /><path d="M 114.91283532996324 114.78537596483092 l 17.3707382281202 17.222271272142518 a45.46117688013277,45.46117688013277 0 0,0 -0.554210885795944,0.5494740690813475 l -17.07253542219429 -17.517925351452526" fill="#e5ff1a" stroke="none" /><path d="M 114.65682725009322 115.03919595460226 l 13.341692699390327 13.689752048550714 a40.11570232127932,40.11570232127932 0 0,0 -0.49729624109837023,0.4763985496761592 l -13.104723972426646 -13.916762728532454" fill="#ffd413" stroke="none" /><path d="M 114.39649973595853 115.28858382429668 l 23.221140421664973 24.660046424038057 a54.87239661019567,54.87239661019567 0 0,0 -0.6913144057004836,0.6398702931915566 l -22.794396244650525 -25.055034463361995" fill="#75ff27" stroke="none" /><path d="M 113.86319453409587 115.77377054828091 l 11.404517977806464 12.976247960253843 a38.27559091412224,38.27559091412224 0 0,0 -0.497255553598807,0.4295175039187165 l -11.180082944444802 -13.170109596637278" fill="#ffbb11" stroke="none" /><path d="M 113.31354834802062 116.24036423190432 l 11.312512806144031 13.799426234642805 a38.843685448766486,38.843685448766486 0 0,0 -0.5193016555382894,0.4183126542662325 l -11.07396038025049 -13.99158718270244" fill="#ffc312" stroke="none" /><path d="M 112.45986205192187 116.90419585922612 l 20.085835415442194 27.250293337432545 a54.85290639387337,54.85290639387337 0 0,0 -0.76276620491382,0.552183909505221 l -19.615088200154407 -27.591078018310842" fill="#76ff27" stroke="none" /><path d="M 112.16784306229584 117.11559508785304 l 12.460701808406334 17.527537589963007 a42.50543334893736,42.50543334893736 0 0,0 -0.5983245118920246,0.41767697752395605 l -12.157982205340552 -17.738859383292084" fill="#fff417" stroke="none" /><path d="M 111.8722381534696 117.32195027204791 l 5.589585252442478 8.155371930092654 a30.88703972948757,30.88703972948757 0 0,0 -0.4399251539421458,0.29600127680809624 l -5.448763810403329 -8.250122880957871" fill="#ff5307" stroke="none" /><path d="M 111.5731344415666 117.5232005979908 l 11.68539843670814 17.69318259523879 a42.20370833069258,42.20370833069258 0 0,0 -0.6079632448604304,0.39407443011499255 l -11.379949559590699 -17.891170867057674" fill="#fff016" stroke="none" /><line stroke="#e1ed5e" stroke-width="0.3" x1="143.1302829299769" x2="145.66735839644613" y1="173.24464959558577" y2="177.55315839532614" /><path d="M 143.63769802327073 174.10635135553383 a86.0,86.0 0 0,1 -40.68552437913181,11.842963189579606" fill="none" id="id6" stroke="none" /><text fill="#e1ed5e" style="font-size:6.75px; font-family:Arial;" text-anchor="middle"><textPath startOffset="21.407464694133747" xlink:href="#id6">June</textPath></text><path d="M 108.4095320186766 119.2426549942271 l 7.429290493217533 16.99967055186666 a39.552173891612135,39.552173891612135 0 0,0 -0.6244815982484958,0.26655406032107554 l -7.136373819798607 -17.12469926184714" fill="#ffcd13" stroke="none" /><path d="M 108.07796709384702 119.3841803445677 l 9.222190646199348 22.129900330254898 a44.97459674200721,44.97459674200721 0 0,0 -0.7151936162739162,0.29086301751295557 l -8.840942568734992 -22.284950604347145" fill="#ebff1a" stroke="none" /><path d="M 107.74402155503746 119.51999308798841 l 5.161126783243676 13.009410991323223 a34.995785223197615,34.995785223197615 0 0,0 -0.5603120803741958,0.21674074956315184 l -4.93704244037595 -13.096091629024416" fill="#ff8e0d" stroke="none" /><path d="M 107.407793817531 119.65005319985036 l 10.393372791407714 27.56965613617854 a50.46367488023687,50.46367488023687 0 0,0 -0.8132121441367276,0.29862276348890116 l -9.91857149561686 -27.744009748676163" fill="#a8ff21" stroke="none" /><path d="M 107.06938296918513 119.77432235084164 l 21.208148907555366 59.32296705252492 a84.0,84.0 0 0,0 -1.3619769118199128,0.4737662697256382 l -20.186666223690434 -59.678291754819156" fill="#4dd2ff" stroke="none" /><path d="M 106.38641147887787 120.00534299687104 l 5.13156541615723 16.07455557798544 a37.87377553039164,37.87377553039164 0 0,0 -0.621056636781325,0.1924049336298761 l -4.8548681465042804 -16.160277099421958" fill="#ffb610" stroke="none" /><path d="M 106.0420521117495 120.11202640906438 l 12.531114697401504 41.71200530347274 a64.55364763135655,64.55364763135655 0 0,0 -1.064028513897137,0.30972319307773705 l -11.81322617112276 -41.920972190853" fill="#33ff57" stroke="none" /><path d="M 105.3480935250658 120.30758222061773 l 5.321882490436833 20.208054652836694 a41.89707888902305,41.89707888902305 0 0,0 -0.6970770282448859,0.17719425468133265 l -4.97420016896655 -20.296434139353295" fill="#ffec16" stroke="none" /><path d="M 104.64783097203109 120.47920084513623 l 3.937164663732718 17.347873964039756 a38.789041476750626,38.789041476750626 0 0,0 -0.6506170586395593,0.14179895974099285 l -3.638785188474023 -17.41290438191447" fill="#ffc212" stroke="none" /><path d="M 104.29559338865022 120.5559693870025 l 6.3684975539492585 30.47556621771335 a52.13387058148872,52.13387058148872 0 0,0 -0.8775955463538299,0.17554368776749354 l -5.844405522064471 -30.580399302143704" fill="#94ff23" stroke="none" /><path d="M 103.2317021107853 120.74984581791261 l 2.39453007442188 15.374600797761982 a36.55995256958884,36.55995256958884 0 0,0 -0.6209532010355298,0.09125873685436252 l -2.1302517677786645 -15.413440607915227" fill="#ffa40f" stroke="none" /><path d="M 102.875027216393 120.80226474461374 l 2.3394660200224737 16.927210717188245 a38.088111771724,38.088111771724 0 0,0 -0.6484449847949697,0.08395418560257432 l -2.0485432133367287 -16.964876498991213" fill="#ffb911" stroke="none" /><path d="M 101.80034050326958 120.92268563240118 l 4.855833958031863 56.432151141703244 a77.64068154522873,77.64068154522873 0 0,0 -1.3288794387684457,0.10286367298162818 l -3.886385524488182 -56.50719258167993" fill="#45ffec" stroke="none" /><path d="M 101.44090949804482 120.95050786540614 l 1.225496889712616 17.81845581682491 a38.86054899276158,38.86054899276158 0 0,0 -0.6659137159180142,0.04005971553999789 l -0.9194388216621366 -17.836867510189595" fill="#ffc312" stroke="none" /><path d="M 101.08105385017728 120.97215588758144 l 0.22513554506583408 4.367569428832801 a25.37336812186294,25.37336812186294 0 0,0 -0.43518255068034006,0.018688611201481808 l -0.15012723378466444 -4.370790608460114" fill="#ff0000" stroke="none" /><path d="M 100.72087961077811 120.9876233191556 l 0.5148742514142456 14.990002052840035 a35.99884185658739,35.99884185658739 0 0,0 -0.6177858720946152,0.015911972627803396 l -0.25747506524888647 -14.996631742817883" fill="#ff9c0e" stroke="none" /><line stroke="#e1ed5e" stroke-width="0.3" x1="101.45913802915013" x2="101.54496967792366" y1="184.9874750549273" y2="189.98673829345242" /><path d="M 101.47630435890484 185.9873277026323 a86.0,86.0 0 0,1 -42.54439059252881,-10.42667462771756" fill="none" id="id7" stroke="none" /><text fill="#e1ed5e" style="font-size:6.75px; font-family:Arial;" text-anchor="middle"><textPath startOffset="22.145653131862474" xlink:href="#id7">July</textPath></text><path d="M 99.63950707515114 120.99690560180557 l -0.903883526693731 52.646683961891725 a73.65444271486629,73.65444271486629 0 0,0 -1.2640038339989002,-0.032556255033529935 l 1.807500674763375 -52.62340998950815" fill="#3fffc1" stroke="none" /><path d="M 98.91894614982273 120.97215588758144 l -1.3462997423592244 26.11785533490173 a47.15253124061094,47.15253124061094 0 0,0 -0.8080049846754817,-0.048607573424698146 l 1.7944490791671523 -26.09089578365234" fill="#d0ff1d" stroke="none" /><path d="M 97.84075906011543 120.88869738790638 l -1.5697425079466956 15.185834808775274 a36.26675048530844,36.26675048530844 0 0,0 -0.6187178411660859,-0.06932862462457871 l 1.8301962507135807 -15.156650423643725" fill="#ffa00e" stroke="none" /><path d="M 96.76829788921471 120.74984581791261 l -2.6737049897647585 17.16710402083477 a38.374065696734725,38.374065696734725 0 0,0 -0.6500246889356314,-0.10696131520095196 l 2.9680071817534532 -17.11867670713815" fill="#ffbd11" stroke="none" /><path d="M 94.30408787586889 120.21278271476187 l -2.914516865139975 10.342592166056244 a31.745400005144216,31.745400005144216 0 0,0 -0.5232548745105504,-0.1523118679717725 l 3.091631752032132 -10.291036603781954" fill="#ff6008" stroke="none" /><path d="M 93.27111125876986 119.89276391827306 l -3.186974367032478 9.421723427897671 a30.946138847206885,30.946138847206885 0 0,0 -0.5017610311889175,-0.17453853290539129 l 3.348241170266417 -9.36562646242369" fill="#ff5407" stroke="none" /><line stroke="#e1ed5e" stroke-width="0.3" x1="58.13341422392154" x2="55.67067388415222" y1="173.97424548756322" y2="178.32567169271397" /><path d="M 57.64086615596768 174.84453072859336 a86.0,86.0 0 0,1 -31.369924170532247,-30.572349798747897" fill="none" id="id8" stroke="none" /><text fill="#e1ed5e" style="font-size:6.75px; font-family:Arial;" text-anchor="middle"><textPath startOffset="22.145653131862474" xlink:href="#id8">August</textPath></text><line stroke="#e1ed5e" stroke-width="0.3" x1="26.387840678322732" x2="22.057713659400548" y1="142.50000000000003" y2="145.00000000000006" /><path d="M 25.521815274538298 143.00000000000003 a86.0,86.0 0 0,1 -11.493303480769221,-40.785679425670985" fill="none" id="id9" stroke="none" /><text fill="#e1ed5e" style="font-size:6.75px; font-family:Arial;" text-anchor="middle"><textPath startOffset="21.40746469413373" xlink:href="#id9">September</textPath></text><line stroke="#e1ed5e" stroke-width="0.3" x1="15.003131293944662" x2="10.003315487706104" y1="100.72959589197737" y2="100.7725132973878" /><path d="M 14.003168132696942 100.73817937305945 a86.0,86.0 0 0,1 10.791469493833604,-42.45332614584628" fill="none" id="id10" stroke="none" /><text fill="#e1ed5e" style="font-size:6.75px; font-family:Arial;" text-anchor="middle"><textPath startOffset="22.145653131862435" xlink:href="#id10">October</textPath></text><line stroke="#e1ed5e" stroke-width="0.3" x1="26.387840678322718" x2="22.05771365940052" y1="57.49999999999999" y2="54.99999999999999" /><path d="M 25.521815274538284 56.99999999999999 a86.0,86.0 0 0,1 29.574782752854787,-30.34633250058573" fill="none" id="id11" stroke="none" /><text fill="#e1ed5e" style="font-size:6.75px; font-family:Arial;" text-anchor="middle"><textPath startOffset="21.40746469413373" xlink:href="#id11">November</textPath></text><line stroke="#e1ed5e" stroke-width="0.3" x1="56.869717070023135" x2="54.33264160355391" y1="26.7553504044142" y2="22.446841604673864" /><path d="M 56.362301976729285 25.89364864446614 a86.0,86.0 0 0,1 42.16139366436587,-11.88097634709845" fill="none" id="id12" stroke="none" /><text fill="#e1ed5e" style="font-size:6.75px; font-family:Arial;" text-anchor="middle"><textPath startOffset="22.145653131862474" xlink:href="#id12">December</textPath></text></svg>