<?xml version="1.0" encoding="utf-8" ?>
<svg baseProfile="full" height="200mm" version="1.1" viewBox="0,0,200,200" width="200mm" xmlns="http://www.w3.org/2000/svg" xmlns:ev="http://www.w3.org/2001/xml-events" xmlns:xlink="http://www.w3.org/1999/xlink"><defs /><rect fill="#1a1a1a" height="200" width="200" x="0" y="0" /><text alignment-baseline="middle" fill="#e1ed5e" style="dominant-baseline: central; font-size:9.0px; font-family:Arial;" text-anchor="middle" x="100.0" y="100.0">2024</text><line stroke="#e1ed5e" stroke-width="0.3" x1="100.0" x2="100.0" y1="15.0" y2="10.0" /><path d="M 100.0 14.0 a86.0,86.0 0 0,1 42.35913384403234,11.155469271406648" fill="none" id="id1" stroke="none" /><text fill="#e1ed5e" style="font-size:6.75px; font-family:Arial;" text-anchor="middle"><textPath startOffset="22.145653131862478" xlink:href="#id1">January</textPath></text><line stroke="#e1ed5e" stroke-width="0.3" x1="143.13028292997686" x2="145.6673583964461" y1="26.7553504044142" y2="22.446841604673864" /><path d="M 143.63769802327073 25.89364864446614 a86.0,86.0 0 0,1 29.32050498858742,28.57503671076993" fill="none" id="id2" stroke="none" /><text fill="#e1ed5e" style="font-size:6.75px; font-family:Arial;" text-anchor="middle"><textPath startOffset="20.669276256404974" xlink:href="#id2">February</textPath></text><line stroke="#e1ed5e" stroke-width="0.3" x1="172.87174338648825" x2="177.1583165268699" y1="56.24261187166439" y2="53.66864786411523" /><path d="M 173.72905801456457 55.72781907015455 a86.0,86.0 0 0,1 12.242430191666344,42.057860355516425" fill="none" id="id3" stroke="none" /><text fill="#e1ed5e" style="font-size:6.75px; font-family:Arial;" text-anchor="middle"><textPath startOffset="22.145653131862474" xlink:href="#id3">March</textPath></text><line stroke="#e1ed5e" stroke-width="0.3" x1="184.99686870605535" x2="189.99668451229388" y1="99.2704041080226" y2="99.22748670261217" /><path d="M 185.99683186730306 99.26182062694052 a86.0,86.0 0 0,1 -10.086455211305974,41.156179273409016" fill="none" id="id4" stroke="none" /><text fill="#e1ed5e" style="font-size:6.75px; font-family:Arial;" text-anchor="middle"><textPath startOffset="21.40746469413373" xlink:href="#id4">April</textPath></text><path d="M 120.26092885502905 105.52220625578681 l 18.68433610295501 5.092498890412468 a40.365896843602165,40.365896843602165 0 0,0 -0.18795420295854204,0.666983159489453 l -18.59416340792189 -5.412489973804929" fill="#ff870c" stroke="none" /><path d="M 120.05942366710727 106.21446072829308 l 13.65209639249358 4.229454360104135 a35.292236357342404,35.292236357342404 0 0,0 -0.1842511601854064,0.5771641350187708 l -13.577480516530917 -4.463187528814289" fill="#ff3404" stroke="none" /><path d="M 119.94978838288452 106.5578916946017 l 19.90076755822924 6.5417775758602 a41.948398584586286,41.948398584586286 0 0,0 -0.2307453132482327,0.6821575178631768 l -19.78553682340864 -6.882436768197538" fill="#ffa10e" stroke="none" /><path d="M 119.83427380445688 106.89939002012753 l 11.883904942880514 4.133839028915189 a33.582361535435325,33.582361535435325 0 0,0 -0.19407379454586915,0.5428589439742009 l -11.811190978290702 -4.337232929270312" fill="#ff1602" stroke="none" /><path d="M 119.71291397450082 107.23885506374661 l 16.464509021286197 6.045995769829219 a38.5395017648965,38.5395017648965 0 0,0 -0.23338295645590698,0.6190760195625136 l -16.35829538101585 -6.327740069585891" fill="#ff6a09" stroke="none" /><path d="M 119.58574465831526 107.57618678355244 l 29.81415120387042 11.53275416657183 a52.96698344657857,52.96698344657857 0 0,0 -0.3353095696397861,0.8451991559149745 l -29.61178295926451 -12.04285433970037" fill="#bcff1f" stroke="none" /><path d="M 119.4528033332814 107.91128576633889 l 14.50053352156637 5.897240746644443 a36.65384683820413,36.65384683820413 0 0,0 -0.2420448216560461,0.5808194586510925 l -14.397162855373837 -6.145292714736813" fill="#ff4b06" stroke="none" /><path d="M 119.31412917781788 108.2440532568976 l 14.17942100005127 6.052351664430669 a36.4170989672711,36.4170989672711 0 0,0 -0.2503521526718523,0.5728547189341219 l -14.073434965362454 -6.294868453140636" fill="#ff4706" stroke="none" /><path d="M 118.5362547648365 109.86951160357373 l 12.897883539804827 6.867396508766591 a35.61220498812509,35.61220498812509 0 0,0 -0.29194317615035986,0.5371425618714403 l -12.778095014039128 -7.087793904112635" fill="#ff3905" stroke="none" /><line stroke="#e1ed5e" stroke-width="0.3" x1="174.33088141563837" x2="178.70328620479359" y1="141.23008692659167" y2="143.65538615756765" /><path d="M 175.20536237346943 141.71514677278685 a86.0,86.0 0 0,1 -30.301960400862466,31.631185727798858" fill="none" id="id5" stroke="none" /><text fill="#e1ed5e" style="font-size:6.75px; font-family:Arial;" text-anchor="middle"><textPath startOffset="22.145653131862474" xlink:href="#id5">May</textPath></text><path d="M 118.18653347947321 110.5 l 17.084282317803588 9.86361499509546 a40.72722999019093,40.72722999019093 0 0,0 -0.354765765657018,0.6024698292901298 l -16.912442842016805 -10.15543599267914" fill="#ff8d0d" stroke="none" /><path d="M 117.81537515405839 111.11811171558189 l 30.54944235382203 19.065111455772445 a57.01037215790085,57.01037215790085 0 0,0 -0.5252618288751311,0.8257988386625339 l -30.217662833321008 -19.58672396911365" fill="#86ff25" stroke="none" /><path d="M 117.62189284568427 111.42229804090321 l 52.865678537052815 34.26689412270965 a84.0,84.0 0 0,0 -0.7947022443170932,1.2032804866437559 l -52.269651853815 -35.169354487692466" fill="#4dd2ff" stroke="none" /><path d="M 117.423217284605 111.72311816256416 l 9.906715859287642 6.665680552810157 a32.94044874989097,32.94044874989097 0 0,0 -0.31969531091127285,0.466445012829665 l -9.79083081156105 -6.834760300709865" fill="#ff0b01" stroke="none" /><path d="M 116.35404254752997 113.17365903436017 l 23.104269121992974 18.611163739279956 a50.66787264688466,50.66787264688466 0 0,0 -0.551443021707506,0.6726708231020375 l -22.781379281046842 -19.005036844080486" fill="#dcff1b" stroke="none" /><path d="M 116.1254893667686 113.45245675266167 l 21.01329344424071 17.530036754864938 a48.36531911015629,48.36531911015629 0 0,0 -0.5373281850529862,0.6329712508999142 l -20.70927069568061 -17.888174788214407" fill="#fcff18" stroke="none" /><path d="M 115.89218393027572 113.72728997021213 l 23.413378648607903 20.223918833428566 a51.938538955875,51.938538955875 0 0,0 -0.5886094107454405,0.669729459889086 l -23.062758173903877 -20.622860571128946" fill="#caff1d" stroke="none" /><path d="M 115.41159269507618 114.26474011684316 l 22.756707547553297 21.063268768098357 a52.00853156152379,52.00853156152379 0 0,0 -0.6120764367321051,0.6500039649556226 l -22.391775277084932 -21.45081419299848" fill="#c9ff1d" stroke="none" /><path d="M 114.91283532996324 114.78537596483092 l 19.842344887179916 19.672753214899117 a48.94165116230819,48.94165116230819 0 0,0 -0.5966408637967425,0.5915413998766413 l -19.50171210325321 -20.01047462500442" fill="#f4ff19" stroke="none" /><path d="M 114.65682725009322 115.03919595460226 l 15.240024024512723 15.637607221988327 a42.835592318435204,42.835592318435204 0 0,0 -0.531013488797389,0.5086989102568196 l -14.96933804985002 -15.896918262550727" fill="#ffae10" stroke="none" /><path d="M 114.39649973595853 115.28858382429668 l 26.525175318940548 28.168816987151317 a59.69195234355792,59.69195234355792 0 0,0 -0.7520339753452804,0.6960714203642405 l -26.0377115722813 -28.620006153647935" fill="#64ff29" stroke="none" /><path d="M 113.86319453409587 115.77377054828091 l 13.027217151966031 14.82258174566857 a40.733659476425174,40.733659476425174 0 0,0 -0.5291894366438573,0.45710123151446425 l -12.770848235559319 -15.04402710964775" fill="#ff8d0d" stroke="none" /><path d="M 113.31354834802062 116.24036423190432 l 12.922120965289592 15.762886470174632 a41.38258570724508,41.38258570724508 0 0,0 -0.5532442408579425,0.44565439833019926 l -12.649625954076397 -15.982389162298235" fill="#ff980e" stroke="none" /><path d="M 112.45986205192187 116.90419585922612 l 22.94376142374615 31.12761884827916 a59.669688949272995,59.669688949272995 0 0,0 -0.8297467751555387,0.60067267696594 l -22.40603363821664 -31.516892296618177" fill="#64ff29" stroke="none" /><path d="M 112.16784306229584 117.11559508785304 l 14.233680778082942 20.021454547052528 a45.56534776208263,45.56534776208263 0 0,0 -0.6413971652784013,0.44774503477848726 l -13.887888521630781 -20.262844397636137" fill="#ffd814" stroke="none" /><path d="M 111.8722381534696 117.32195027204791 l 6.3849029844749765 9.315764269486449 a32.293823535269084,32.293823535269084 0 0,0 -0.4599620233780637,0.3094829767816531 l -6.22404467299991 -9.423996920325225" fill="#ff0000" stroke="none" /><path d="M 111.5731344415666 117.5232005979908 l 13.34806286758301 20.210668458422166 a45.22069160559229,45.22069160559229 0 0,0 -0.6514242347603096,0.422245318687311 l -12.999153000565691 -20.43682761881337" fill="#ffd313" stroke="none" /><line stroke="#e1ed5e" stroke-width="0.3" x1="143.1302829299769" x2="145.66735839644613" y1="173.24464959558577" y2="177.55315839532614" /><path d="M 143.63769802327073 174.10635135553383 a86.0,86.0 0 0,1 -40.68552437913181,11.842963189579606" fill="none" id="id6" stroke="none" /><text fill="#e1ed5e" style="font-size:6.75px; font-family:Arial;" text-anchor="middle"><textPath startOffset="21.407464694133747" xlink:href="#id6">June</textPath></text><line stroke="#e1ed5e" stroke-width="0.3" x1="101.45913802915013" x2="101.54496967792366" y1="184.9874750549273" y2="189.98673829345242" /><path d="M 101.47630435890484 185.9873277026323 a86.0,86.0 0 0,1 -42.54439059252881,-10.42667462771756" fill="none" id="id7" stroke="none" /><text fill="#e1ed5e" style="font-size:6.75px; font-family:Arial;" text-anchor="middle"><textPath startOffset="22.145653131862474" xlink:href="#id7">July</textPath></text><line stroke="#e1ed5e" stroke-width="0.3" x1="58.13341422392154" x2="55.67067388415222" y1="173.97424548756322" y2="178.32567169271397" /><path d="M 57.64086615596768 174.84453072859336 a86.0,86.0 0 0,1 -31.369924170532247,-30.572349798747897" fill="none" id="id8" stroke="none" /><text fill="#e1ed5e" style="font-size:6.75px; font-family:Arial;" text-anchor="middle"><textPath startOffset="22.145653131862474" xlink:href="#id8">August</textPath></text><line stroke="#e1ed5e" stroke-width="0.3" x1="26.387840678322732" x2="22.057713659400548" y1="142.50000000000003" y2="145.00000000000006" /><path d="M 25.521815274538298 143.00000000000003 a86.0,86.0 0 0,1 -11.493303480769221,-40.785679425670985" fill="none" id="id9" stroke="none" /><text fill="#e1ed5e" style="font-size:6.75px; font-family:Arial;" text-anchor="middle"><textPath startOffset="21.40746469413373" xlink:href="#id9">September</textPath></text><line stroke="#e1ed5e" stroke-width="0.3" x1="15.003131293944662" x2="10.003315487706104" y1="100.72959589197737" y2="100.7725132973878" /><path d="M 14.003168132696942 100.73817937305945 a86.0,86.0 0 0,1 10.791469493833604,-42.45332614584628" fill="none" id="id10" stroke="none" /><text fill="#e1ed5e" style="font-size:6.75px; font-family:Arial;" text-anchor="middle"><textPath startOffset="22.145653131862435" xlink:href="#id10">October</textPath></text><line stroke="#e1ed5e" stroke-width="0.3" x1="26.387840678322718" x2="22.05771365940052" y1="57.49999999999999" y2="54.99999999999999" /><path d="M 25.521815274538284 56.99999999999999 a86.0,86.0 0 0,1 29.574782752854787,-30.34633250058573" fill="none" id="id11" stroke="none" /><text fill="#e1ed5e" style="font-size:6.75px; font-family:Arial;" text-anchor="middle"><textPath startOffset="21.40746469413373" xlink:href="#id11">November</textPath></text><line stroke="#e1ed5e" stroke-width="0.3" x1="56.869717070023135" x2="54.33264160355391" y1="26.7553504044142" y2="22.446841604673864" /><path d="M 56.362301976729285 25.89364864446614 a86.0,86.0 0 0,1 42.16139366436587,-11.88097634709845" fill="none" id="id12" stroke="none" /><text fill="#e1ed5e" style="font-size:6.75px; font-family:Arial;" text-anchor="middle"><textPath startOffset="22.145653131862474" xlink:href="#id12">December</textPath></text></svg>